<?xml version="1.0" encoding="UTF-8"?>

<svg xmlns="http://www.w3.org/2000/svg" version="1.1"
	width="210mm"
	height="297mm"
	viewBox="0 0 210 297">
	<!-- Working space 0 0 210 297 -->
	<defs>
		<radialGradient
			id="radialGradient3661"
			gradientUnits="userSpaceOnUse"
			cy="29.149"
			cx="282.65"
			gradientTransform="matrix(.14777 .23089 -.24680 .15795 -26.318 -62.617)"
			r="19.571">
				<stop stop-color="#71b2f8" offset="0"/>
				<stop stop-color="#002795" offset="1"/>
		</radialGradient>
		<radialGradient
			id="radialGradient3817"
			gradientUnits="userSpaceOnUse"
			cy="33.9"
			cx="270.58"
			gradientTransform="matrix(.26631 .065024 -.17931 .73438 -60.668 -36.938)"
			r="19.571">
				<stop stop-color="#ff6d0f" offset="0"/>
				<stop stop-color="#ff1000" offset="1"/>
		</radialGradient>
	</defs>
	<!-- Set display:none to hide FreeCAD Logo -->
	<g
		style="display:inline"
		id="freecad-logo"
		transform="translate(184, 272) scale(1)"
		fill-rule="evenodd"
		stroke-width=".45621">
		<path d="m0.22811 0.22835v13.256h2.9558v-5.1876h2.09v-2.0452h-2.09v-2.2075h5.1486v-3.8087l-8.1044-0.0075z"
			stroke="#370700"
			fill="url(#radialGradient3817)"/>
		<path d="m13.386 4.1792-1.7193 0.98645-0.75925-0.26348-0.72439-1.8513-1.1395 0.05988-0.51976 1.9144-0.72743 0.34835-1.8143-0.79367-0.76632 0.85156 0.98645 1.7193-0.26957 0.75702-1.8513 0.72439 0.065967 1.1417 1.9144 0.51976 0.34835 0.72743-0.79976 1.8121 0.85156 0.76632 1.7193-0.98645 0.76311 0.27179 0.7183 1.8491 1.1478-0.06375 0.51367-1.9166 0.72743-0.34835 1.8182 0.80198 0.76632-0.85156-0.98645-1.7193 0.2657-0.76533 1.8491-0.7183-0.05766-1.1456-1.9166-0.51367-0.34835-0.72743 0.7959-1.8204-0.85156-0.76632zm-2.5751 2.8195 0.35295 0.20478 0.30579 0.27725 0.24481 0.33087 0.17611 0.36787 0.10354 0.39656 0.01715 0.4064-0.0587 0.4063-0.13396 0.38571-0.2131 0.35681-0.26894 0.30192-0.33087 0.24481-0.36787 0.17611-0.39656 0.10354-0.40863 0.02325-0.4063-0.0587-0.38571-0.13396-0.35681-0.2131-0.2997-0.27503-0.24703-0.32478-0.17611-0.36787-0.10132-0.40264-0.02324-0.40863 0.05869-0.4063 0.13396-0.38571 0.21087-0.35072 0.27116-0.30801 0.33087-0.24481 0.36787-0.17611 0.40264-0.10132 0.40641-0.01715 0.4063 0.05869 0.38571 0.13396z" 
		stroke="#000137"
		fill="url(#radialGradient3661)"/>
	</g>
<g id="View"
   transform="rotate(60,105,188.304) translate(105,188.304) scale(0.1,0.1)"
  >
<g   stroke="rgb(0, 0, 0)"
   stroke-width="3.5"
   stroke-linecap="butt"
   stroke-linejoin="miter"
   fill="none"
   transform="scale(1,-1)"
  >
<path id= "1" d=" M 353.553 612.372 L 212.132 694.022 " />
<path id= "2" d=" M -106.066 510.31 L 212.132 694.022 " />
<path id= "3" d=" M -353.553 -612.372 L -494.975 -530.723 " />
<path id= "4" d=" M -494.975 -530.723 L -494.975 -420.699 " />
<path id= "5" d=" M -1074.77 171.445 L -1202.08 244.949 " />
<path id= "6" d=" M -1202.08 244.949 L -1202.08 326.599 " />
<path id= "7" d=" M 212.132 694.022 L 212.132 326.599 " />
<path id= "8" d=" M 212.132 326.599 L -494.975 734.847 " />
<path id= "9" d=" M -494.975 734.847 L -494.975 653.197 " />
<path id= "10" d=" M 212.132 244.949 L -494.975 653.197 " />
<path id= "11" d=" M 212.132 244.949 L 212.132 -122.474 " />
<path id= "12" d=" M 353.553 -204.124 L 212.132 -122.474 " />
<path id= "13" d=" M 353.553 612.372 L 353.553 -204.124 " />
<path id= "14" d=" M 353.553 -204.124 L -353.553 -612.372 " />
<path id= "15" d=" M 212.132 -122.474 L -494.975 -530.723 " />
<path id= "16" d=" M -1166.73 265.361 L -1202.08 244.949 " />
<path id= "17" d=" M -1202.08 326.599 L -494.975 734.847 " />
<path id= "18" d=" M -494.975 653.197 L -530.33 632.785 " />
<path id= "19" d=" M -1096.02 306.186 L -1166.73 265.361 " />
<path id= "20" d=" M -530.33 632.785 L -601.041 591.96 " />
<path id= "21" d=" M -883.883 428.661 L -1096.02 306.186 " />
<path id= "22" d=" M -601.041 591.96 L -813.173 469.486 " />
<path id= "23" d=" M -813.173 469.486 L -883.883 428.661 " />
<path id= "24" d=" M 212.132 244.949 L 176.777 224.537 " />
<path id= "25" d=" M 176.777 224.537 L -530.33 632.785 " />
<path id= "26" d=" M -1096.02 306.186 L -388.909 -415.983 " />
<path id= "27" d=" M -388.909 -415.983 L -459.619 -456.808 " />
<path id= "28" d=" M -459.619 -456.808 L -1166.73 265.361 " />
<path id= "29" d=" M -813.173 469.486 L -106.066 -252.684 " />
<path id= "30" d=" M -106.066 -252.684 L -176.777 -293.509 " />
<path id= "31" d=" M -176.777 -293.509 L -883.883 428.661 " />
<path id= "32" d=" M -530.33 632.785 L 176.777 -89.3844 " />
<path id= "33" d=" M 176.777 -89.3844 L 106.066 -130.209 " />
<path id= "34" d=" M 106.066 -130.209 L -601.041 591.96 " />
<path id= "35" d=" M 176.777 224.537 L 176.777 -89.3844 " />
<path id= "36" d=" M -373.143 -92.9596 L -388.909 -102.062 " />
<path id= "37" d=" M -388.909 -102.062 L -1096.02 306.186 " />
<path id= "38" d=" M -90.3001 70.3397 L -106.066 61.2372 " />
<path id= "39" d=" M -106.066 61.2372 L -813.173 469.486 " />
<path id= "40" d=" M -388.909 -102.062 L -388.909 -415.983 " />
<path id= "41" d=" M -106.066 61.2372 L -106.066 -252.684 " />
</g>
</g>



</svg>

