<?xml version="1.0" encoding="UTF-8" standalone="no"?>
<svg
   xmlns:dc="http://purl.org/dc/elements/1.1/"
   xmlns:cc="http://creativecommons.org/ns#"
   xmlns:rdf="http://www.w3.org/1999/02/22-rdf-syntax-ns#"
   xmlns:svg="http://www.w3.org/2000/svg"
   xmlns="http://www.w3.org/2000/svg"
   xmlns:sodipodi="http://sodipodi.sourceforge.net/DTD/sodipodi-0.dtd"
   xmlns:inkscape="http://www.inkscape.org/namespaces/inkscape"
   version="1.1"
   width="210mm"
   height="297mm"
   viewBox="0 0 210 297"
   id="svg2"
   inkscape:version="0.91 r13725"
   sodipodi:docname="part_tolerance.svg">
  <metadata
     id="metadata57">
    <rdf:RDF>
      <cc:Work
         rdf:about="">
        <dc:format>image/svg+xml</dc:format>
        <dc:type
           rdf:resource="http://purl.org/dc/dcmitype/StillImage" />
      </cc:Work>
    </rdf:RDF>
  </metadata>
  <sodipodi:namedview
     pagecolor="#ffffff"
     bordercolor="#666666"
     borderopacity="1"
     objecttolerance="10"
     gridtolerance="10"
     guidetolerance="10"
     inkscape:pageopacity="0"
     inkscape:pageshadow="2"
     inkscape:window-width="1283"
     inkscape:window-height="733"
     id="namedview55"
     showgrid="false"
     inkscape:zoom="1.0091582"
     inkscape:cx="466.09967"
     inkscape:cy="335.44058"
     inkscape:window-x="0"
     inkscape:window-y="23"
     inkscape:window-maximized="0"
     inkscape:current-layer="svg2" />
  <!-- Working space 0 0 210 297 -->
  <defs
     id="defs4">
    <radialGradient
       id="radialGradient3661"
       gradientUnits="userSpaceOnUse"
       cy="29.149"
       cx="282.65"
       gradientTransform="matrix(.14777 .23089 -.24680 .15795 -26.318 -62.617)"
       r="19.571">
      <stop
         stop-color="#71b2f8"
         offset="0"
         id="stop7" />
      <stop
         stop-color="#002795"
         offset="1"
         id="stop9" />
    </radialGradient>
    <radialGradient
       id="radialGradient3817"
       gradientUnits="userSpaceOnUse"
       cy="33.9"
       cx="270.58"
       gradientTransform="matrix(.26631 .065024 -.17931 .73438 -60.668 -36.938)"
       r="19.571">
      <stop
         stop-color="#ff6d0f"
         offset="0"
         id="stop12" />
      <stop
         stop-color="#ff1000"
         offset="1"
         id="stop14" />
    </radialGradient>
  </defs>
  <!-- Set display:none to hide FreeCAD Logo -->
  <g
     style="display:inline"
     id="freecad-logo"
     transform="translate(184, 272) scale(1)"
     fill-rule="evenodd"
     stroke-width=".45621">
    <path
       d="m0.22811 0.22835v13.256h2.9558v-5.1876h2.09v-2.0452h-2.09v-2.2075h5.1486v-3.8087l-8.1044-0.0075z"
       stroke="#370700"
       fill="url(#radialGradient3817)"
       id="path17" />
    <path
       d="m13.386 4.1792-1.7193 0.98645-0.75925-0.26348-0.72439-1.8513-1.1395 0.05988-0.51976 1.9144-0.72743 0.34835-1.8143-0.79367-0.76632 0.85156 0.98645 1.7193-0.26957 0.75702-1.8513 0.72439 0.065967 1.1417 1.9144 0.51976 0.34835 0.72743-0.79976 1.8121 0.85156 0.76632 1.7193-0.98645 0.76311 0.27179 0.7183 1.8491 1.1478-0.06375 0.51367-1.9166 0.72743-0.34835 1.8182 0.80198 0.76632-0.85156-0.98645-1.7193 0.2657-0.76533 1.8491-0.7183-0.05766-1.1456-1.9166-0.51367-0.34835-0.72743 0.7959-1.8204-0.85156-0.76632zm-2.5751 2.8195 0.35295 0.20478 0.30579 0.27725 0.24481 0.33087 0.17611 0.36787 0.10354 0.39656 0.01715 0.4064-0.0587 0.4063-0.13396 0.38571-0.2131 0.35681-0.26894 0.30192-0.33087 0.24481-0.36787 0.17611-0.39656 0.10354-0.40863 0.02325-0.4063-0.0587-0.38571-0.13396-0.35681-0.2131-0.2997-0.27503-0.24703-0.32478-0.17611-0.36787-0.10132-0.40264-0.02324-0.40863 0.05869-0.4063 0.13396-0.38571 0.21087-0.35072 0.27116-0.30801 0.33087-0.24481 0.36787-0.17611 0.40264-0.10132 0.40641-0.01715 0.4063 0.05869 0.38571 0.13396z"
       stroke="#000137"
       fill="url(#radialGradient3661)"
       id="path19" />
  </g>
  <g
     id="g4233"
     inkscape:export-xdpi="89.400002"
     inkscape:export-ydpi="89.400002">
    <path
       id="path4224"
       d="m 65.637717,171.63056 70.710753,40.82481"
       inkscape:connector-curvature="0"
       style="fill:none;stroke:#635d5d;stroke-width:0.28222221;stroke-linecap:butt;stroke-linejoin:miter;stroke-miterlimit:4;stroke-dasharray:none;stroke-opacity:1" />
    <g
       transform="matrix(0.05,0.08660254,0.08660254,-0.05,80.2513,162.789)"
       id="g22"
       style="fill:none;stroke:#000000;stroke-width:1.5;stroke-linecap:butt;stroke-linejoin:miter;stroke-dasharray:0.2, 0.1">
      <path
         id="1"
         d="m 0,163.299 -141.421,81.65"
         inkscape:connector-curvature="0" />
      <path
         id="2"
         d="M 0,0 0,163.299"
         inkscape:connector-curvature="0" />
      <path
         id="3"
         d="M 0,163.299 707.107,571.548"
         inkscape:connector-curvature="0" />
    </g>
    <path
       inkscape:connector-curvature="0"
       d="m 80.2513,162.789 2.1e-5,-16.3299"
       id="path29"
       style="fill:none;stroke:#000000;stroke-width:0.34999999;stroke-linecap:butt;stroke-linejoin:miter" />
    <path
       inkscape:connector-curvature="0"
       d="m 80.251321,146.4591 14.142135,-8.16497"
       id="path31"
       style="fill:none;stroke:#000000;stroke-width:0.34999999;stroke-linecap:butt;stroke-linejoin:miter" />
    <path
       inkscape:connector-curvature="0"
       d="m 150.96196,203.61386 0,-16.33"
       id="path33"
       style="fill:none;stroke:#000000;stroke-width:0.34999999;stroke-linecap:butt;stroke-linejoin:miter" />
    <path
       inkscape:connector-curvature="0"
       d="m 150.96196,187.28386 14.14211,-8.16495"
       id="4"
       style="fill:none;stroke:#000000;stroke-width:0.34999999;stroke-linecap:butt;stroke-linejoin:miter" />
    <path
       inkscape:connector-curvature="0"
       d="m 165.10416,195.44886 -9e-5,-16.32995"
       id="5"
       style="fill:none;stroke:#000000;stroke-width:0.34999999;stroke-linecap:butt;stroke-linejoin:miter" />
    <path
       inkscape:connector-curvature="0"
       d="m 150.96196,203.61386 14.1422,-8.165"
       id="6"
       style="fill:none;stroke:#000000;stroke-width:0.34999999;stroke-linecap:butt;stroke-linejoin:miter" />
    <path
       inkscape:connector-curvature="0"
       d="m 80.2513,162.789 70.71066,40.82486"
       id="7"
       style="fill:none;stroke:#000000;stroke-width:0.34999999;stroke-linecap:butt;stroke-linejoin:miter" />
    <path
       inkscape:connector-curvature="0"
       d="m 80.251321,146.4591 70.710639,40.82476"
       id="8"
       style="fill:none;stroke:#000000;stroke-width:0.34999999;stroke-linecap:butt;stroke-linejoin:miter" />
    <path
       inkscape:connector-curvature="0"
       d="m 94.393456,138.29413 70.710614,40.82478"
       id="9"
       style="fill:none;stroke:#000000;stroke-width:0.34999999;stroke-linecap:butt;stroke-linejoin:miter" />
    <polygon
       transform="translate(3.878125,-23.216724)"
       points="132.46603,235.64972 130.36796,233.28369 129.00193,233.64972 129.36796,235.01574 "
       style="fill:#707070;fill-opacity:1;stroke:#999999;stroke-width:0"
       id="polygon49" />
    <polygon
       transform="matrix(0.9998477,-0.01745241,0.01745241,0.9998477,0.22040415,-22.229285)"
       points="63.853445,197.19088 65.219471,196.82486 64.853446,195.45883 61.75537,194.82486 "
       style="fill:#707070;fill-opacity:1;stroke:#999999;stroke-width:0"
       id="polygon51" />
    <path
       style="fill:none;stroke:#635d5d;stroke-width:0.28222221;stroke-linecap:butt;stroke-linejoin:miter;stroke-miterlimit:4;stroke-dasharray:none;stroke-opacity:1"
       id="path4208"
       d="m 135.70638,212.68156 14.1422,-8.165"
       inkscape:connector-curvature="0" />
    <path
       inkscape:connector-curvature="0"
       d="m 64.940618,171.77608 14.1422,-8.165"
       id="path4210"
       style="fill:none;stroke:#635d5d;stroke-width:0.28222222;stroke-linecap:butt;stroke-linejoin:miter;stroke-miterlimit:4;stroke-dasharray:none;stroke-opacity:1" />
    <text
       sodipodi:linespacing="125%"
       id="text4229"
       y="188.49152"
       x="98.161018"
       style="font-style:normal;font-weight:normal;font-size:6.3499999px;line-height:125%;font-family:sans-serif;letter-spacing:0px;word-spacing:0px;fill:#666666;fill-opacity:1;stroke:none;stroke-width:1px;stroke-linecap:butt;stroke-linejoin:miter;stroke-opacity:1"
       xml:space="preserve"><tspan
         y="188.49152"
         x="98.161018"
         id="tspan4231"
         sodipodi:role="line">X</tspan></text>
  </g>
</svg>
